<svg xmlns="http://www.w3.org/2000/svg" version="1.1" xmlns:xlink="http://www.w3.org/1999/xlink" xmlns:svgjs="http://svgjs.dev/svgjs" width="100%" height="100%" viewBox="0 0 1000 600"><rect width="1000" height="600" x="0" y="0" fill="#141a46"/><g><circle r="166.66666666666666" cx="308.9284311930338" cy="331.15065312262743" fill="#ec8b5e" transform="matrix(0.8786619225978075,0,0,0.8786619225978074,0,9.030521519541225)"/><path d="M352.46021225734074 256.1506774364536L352.46021225734074 355.7191290989746Q352.46021225734074 366.31151757371083 350.2240413571186 375.4327409825115Q348.01729375821526 384.5539643913122 342.3974432063413 391.4390168998908Q336.7775926544673 398.3240694084694 327.36213623247954 402.23736848385806Q317.917256509173 406.1506675592467 303.73522527355385 406.1506675592467L303.73522527355385 406.1506675592467Q296.52651645046944 406.1506675592467 290.49473968013353 404.9737355064982Q284.4629629097976 403.82622675506855 279.5786948908914 402.03140537462707Q274.69442687198523 400.207160692867 271.1047841111024 398.2063762031945Q267.51514135021955 396.20559171352215 265.3966636552723 394.2930771278059L265.3966636552723 394.2930771278059L273.42922491528066 377.9631448959208Q277.87214341440614 381.14086143834163 284.9925823335344 384.6422342952683Q292.08359795134396 388.14360715219505 302.67598642608027 388.14360715219505L302.67598642608027 388.14360715219505Q317.917256509173 388.14360715219505 324.9200022230264 380.40527890537385Q331.89332463556116 372.66695065855265 331.89332463556116 353.836037814577L331.89332463556116 353.836037814577L331.89332463556116 256.1506774364536L352.46021225734074 256.1506774364536Z " fill="#141a46" transform="matrix(0.8786619225978075,0,0,0.8786619225978074,0,9.030521519541225)"/><path d="M622.8745572445165 269.05227056916004L622.8745572445165 342.18294756282455Q622.8745572445165 349.96280681746964 621.2321425129803 356.6621300645252Q619.6113385015958 363.3614533115807 615.4836909526036 368.41836182710006Q611.3560434036112 373.4752703426194 604.4406129550377 376.34949612280775Q597.5035717863125 379.2237219029962 587.0872046731488 379.2237219029962L587.0872046731488 379.2237219029962Q581.7925782359597 379.2237219029962 577.3623806048423 378.3592930969245Q572.9321829737249 377.51647501100456 569.3448034285275 376.19822108174526Q565.7574238833299 374.8583564323342 563.1209160248113 373.3888274620123Q560.4844081662927 371.9192984916905 558.9284363153637 370.51460168182393L558.9284363153637 370.51460168182393L564.828162916803 358.5206519975793Q568.0913816597235 360.8546097739729 573.3211759364572 363.42628547203617Q578.529359493039 365.9979611700994 586.3092187476842 365.9979611700994L586.3092187476842 365.9979611700994Q597.5035717863125 365.9979611700994 602.6469231824391 360.3143417701781Q607.7686638584138 354.63072237025676 607.7686638584138 340.7998614731098L607.7686638584138 340.7998614731098L607.7686638584138 269.05227056916004L622.8745572445165 269.05227056916004ZM719.3448120021163 336.43449600244776L719.3448120021163 336.43449600244776Q719.3448120021163 346.0728771901471 716.5354183823835 353.8527364447923Q713.7476354828023 361.6325956994374 708.6907269672828 367.25138293890336Q703.6338184517635 372.84855945821744 696.6319451225828 375.8740602794684Q689.6300717934022 378.9211718208711 681.3747766954176 378.9211718208711L681.3747766954176 378.9211718208711Q673.119481597433 378.9211718208711 666.1176082682524 375.8740602794684Q659.1157349390718 372.84855945821744 654.0588264235524 367.25138293890336Q649.0019179080331 361.6325956994374 646.2141350084519 353.8527364447923Q643.404741388719 346.0728771901471 643.404741388719 336.43449600244776L643.404741388719 336.43449600244776Q643.404741388719 326.947389855811 646.2141350084519 319.0810877205588Q649.0019179080331 311.2363963054582 654.0588264235524 305.61760906599227Q659.1157349390718 300.0204325466781 666.1176082682524 296.9949317254272Q673.119481597433 293.9478201840245 681.3747766954176 293.9478201840245L681.3747766954176 293.9478201840245Q689.6300717934022 293.9478201840245 696.6319451225828 296.9949317254272Q703.6338184517635 300.0204325466781 708.6907269672828 305.61760906599227Q713.7476354828023 311.2363963054582 716.5354183823835 319.0810877205588Q719.3448120021163 326.947389855811 719.3448120021163 336.43449600244776ZM704.2389186160136 336.43449600244776L704.2389186160136 336.43449600244776Q704.2389186160136 322.7332994262116 698.1014740929048 314.73733297004856Q691.9640295697958 306.71975579373367 681.3747766954176 306.71975579373367L681.3747766954176 306.71975579373367Q670.7855238210395 306.71975579373367 664.6480792979306 314.73733297004856Q658.5106347748216 322.7332994262116 658.5106347748216 336.43449600244776L658.5106347748216 336.43449600244776Q658.5106347748216 350.13569257868403 664.6480792979306 358.1316590348471Q670.7855238210395 366.1492362111619 681.3747766954176 366.1492362111619L681.3747766954176 366.1492362111619Q691.9640295697958 366.1492362111619 698.1014740929048 358.1316590348471Q704.2389186160136 350.13569257868403 704.2389186160136 336.43449600244776ZM754.202903606957 256.1506706385402L754.202903606957 299.5666074234905Q756.8394114654757 297.8377498113471 762.1988700631201 295.979227878293Q767.5799393809162 294.12070594523885 774.581812710097 294.12070594523885L774.581812710097 294.12070594523885Q783.2909329312691 294.12070594523885 790.0550883387801 297.23264964709693Q796.819243746291 300.34459334895496 801.4871592990781 305.94176986826915Q806.1550748518652 311.5389463875833 808.5754755088659 319.3188056422284Q810.9958761658667 327.09866489687363 810.9958761658667 336.43449600244776L810.9958761658667 336.43449600244776Q810.9958761658667 346.24576295136137 808.1000396655264 354.0904543664619Q805.2258138853381 361.95675650171427 799.9311874481491 367.40265797996585Q794.6581717311118 372.84855945821744 787.1808625585917 375.809228119013Q779.7035533860717 378.7482860596567 770.3677222804976 378.7482860596567L770.3677222804976 378.7482860596567Q760.2539052494589 378.7482860596567 752.4740459948137 377.36519996994207Q744.6941867401684 375.9605031600755 739.7237211052563 374.5558063502091L739.7237211052563 374.5558063502091L739.7237211052563 258.63590345599624L754.202903606957 256.1506706385402ZM754.202903606957 313.0949182385124L754.202903606957 364.29071427810777Q756.3639756221362 364.91742516250974 760.340348130066 365.4576931663046Q764.3167206379957 365.9979611700994 770.216447239435 365.9979611700994L770.216447239435 365.9979611700994Q781.8862361214027 365.9979611700994 788.8881094505833 358.30454479606146Q795.889982779764 350.5895177018716 795.889982779764 336.43449600244776L795.889982779764 336.43449600244776Q795.889982779764 330.2106085987317 794.6581717311118 324.7647071204801Q793.4047499623078 319.3188056422284 790.5953563425749 315.34243313429874Q787.8075734429937 311.38767134652073 783.3773758118763 309.1185457305826Q778.9255674606071 306.8710308347962 772.7016800568911 306.8710308347962L772.7016800568911 306.8710308347962Q766.8019534554518 306.8710308347962 761.8098771003878 308.9024385290647Q756.8394114654757 310.9122355031813 754.202903606957 313.0949182385124L754.202903606957 313.0949182385124ZM845.8323570505555 295.979227878293L845.8323570505555 376.8897641266026L831.3747852690066 376.8897641266026L831.3747852690066 295.979227878293L845.8323570505555 295.979227878293ZM838.5279336392498 281.3487703355297L838.5279336392498 281.3487703355297Q834.6380040119271 281.3487703355297 831.9150532728014 278.77709463746646Q829.1921025336756 276.227029659555 829.1921025336756 271.861664188893L829.1921025336756 271.861664188893Q829.1921025336756 267.496298718231 831.9150532728014 264.94623374031954Q834.6380040119271 262.37455804225624 838.5279336392498 262.37455804225624L838.5279336392498 262.37455804225624Q842.4178632665722 262.37455804225624 845.1408140056982 264.94623374031954Q847.8637647448239 267.496298718231 847.8637647448239 271.861664188893L847.8637647448239 271.861664188893Q847.8637647448239 276.227029659555 845.1408140056982 278.77709463746646Q842.4178632665722 281.3487703355297 838.5279336392498 281.3487703355297ZM902.32277952734 256.1506706385402L902.32277952734 256.1506706385402Q908.6979419721187 256.1506706385402 913.3010253644504 257.07993160506726Q917.8824980366304 258.00919257159427 919.7410199696844 258.7871784970588L919.7410199696844 258.7871784970588L917.1045121111657 271.234953304491Q915.2459901781117 270.305692337964 911.8098856739767 269.44126353189233Q908.3953918899936 268.5984454459724 903.4033155349297 268.5984454459724L903.4033155349297 268.5984454459724Q893.289498503891 268.5984454459724 889.2482938355058 274.1091790846794Q885.2070891671207 279.6415234435382 885.2070891671207 288.97735454911236L885.2070891671207 288.97735454911236L885.2070891671207 295.979227878293L916.3265261857013 295.979227878293L916.3265261857013 308.12445260360016L885.2070891671207 308.12445260360016L885.2070891671207 376.8897641266026L870.7279066654199 376.8897641266026L870.7279066654199 288.67480446698727Q870.7279066654199 273.1150859576969 878.3564908790025 264.62207293804266Q885.9850750925851 256.1506706385402 902.32277952734 256.1506706385402ZM921.6211526228903 403.64383567452126L924.2576604814091 391.9740467925535Q925.9649073734006 392.752032718018 928.6878581125264 393.4651864830271Q931.4108088516522 394.1567295278845 934.0689274303226 394.1567295278845L934.0689274303226 394.1567295278845Q942.6267726104322 394.1567295278845 947.4459632042818 390.3532427811691Q952.2651537981316 386.5281453143019 956.1550834254541 377.97030013419226L956.1550834254541 377.97030013419226Q946.3654271966923 359.2986379230439 937.872414177038 338.37946081610914Q929.4010118775354 317.4602837091744 923.8038353582214 295.979227878293L923.8038353582214 295.979227878293L939.3635538675117 295.979227878293Q941.0708007595032 302.9811012074736 943.4695906963522 311.06351054424385Q945.8899913533529 319.16753060116594 948.8506600141484 327.7253757812756Q951.8113286749439 336.28322096138527 955.2258224589272 344.84106614149493Q958.6403162429102 353.3989113216046 962.3789708291703 361.3300456173123L962.3789708291703 361.3300456173123Q968.3003081507612 344.9923411825574 972.6440629012715 328.95718682992776Q977.0094283719335 312.9436431974498 980.899357999256 295.979227878293L980.899357999256 295.979227878293L995.8323656241445 295.979227878293Q990.2351891048303 318.84336979888906 983.3845908167121 339.93543266703807Q976.533992528594 361.0274955351872 968.6028582328864 379.3749969440587L968.6028582328864 379.3749969440587Q965.4909145310284 386.3768702732393 962.1412529075004 391.4337787887587Q958.8132020041246 396.490687304278 954.7503866155877 399.7539060471986Q950.7091819472025 403.03873551027107 945.6522734316832 404.5947073612Q940.5953649161638 406.15067921212903 934.2202024713852 406.15067921212903L934.2202024713852 406.15067921212903Q932.5129555793936 406.15067921212903 930.6328229261877 405.9129612904594Q928.7743009931336 405.67524336878967 926.9806112205348 405.28625040605743Q925.186921447936 404.8972574433252 923.7173924776142 404.4218215999857Q922.2478635072923 403.96799647679813 921.6211526228903 403.64383567452126L921.6211526228903 403.64383567452126Z " fill="#ec8b5e" transform="matrix(0.8786619225978075,0,0,0.8786619225978074,0,9.030521519541225)"/></g></svg>